<svg width="100" height="100" viewBox="0 0 100 100" fill="none" xmlns="http://www.w3.org/2000/svg">
    <!-- The background circle, using your brand's primary blue -->
    <circle cx="50" cy="50" r="50" fill="#3d5af1"/>
    <!-- A clean, modern 'S' for SaaSify in white -->
    <path d="M68.3418 32.1818C64.9091 29.5455 60.3182 28 55.2273 28C46.8636 28 40.0909 33.0909 40.0909 40.5C40.0909 46.5909 44.5 50.1364 50.1818 51.9545C56.2727 53.9545 59.9091 56.4091 59.9091 61.6818C59.9091 67.4091 55.4091 72 48.7273 72C43.2727 72 38.6818 70.3182 35.3409 67.5L31.6591 71.0455C35.9091 74.3182 41.7727 76 48.7273 76C59.0455 76 67.8182 69.8182 67.8182 61.5C67.8182 54.0455 62.5 49.3182 56.1818 47.4091C50.5 45.6818 47.2727 43.5909 47.2727 40.4091C47.2727 36.5455 50.7727 32 55.3182 32C59.5455 32 63.4091 33.8182 65.9545 36.3182L68.3418 32.1818Z" fill="white"/>
</svg>